<?xml version="1.0" encoding="UTF-8"?>
<svg id="Layer_1" xmlns="http://www.w3.org/2000/svg" baseProfile="tiny" version="1.2" viewBox="0 0 729.9 396.4">
  <!-- Generator: Adobe Illustrator 29.8.1, SVG Export Plug-In . SVG Version: 2.1.1 Build 2)  -->
  <g>
    <path d="M20.1,305.7v13.4h21.3v58.5h17.4v-58.5h21.7v-13.4H20.1Z" fill="#2b3a67"/>
    <path d="M132.8,305.7v28.5h-25.6v-28.5h-17.4v71.9h17.4v-30h25.6v30h17.3v-71.9h-17.3Z" fill="#2b3a67"/>
    <path d="M204.3,347.8c4.3-2,7.5-4.7,9.5-8,2-3.3,3.1-7.4,3.1-12.4s-2.4-12.2-7.2-16c-4.8-3.8-11.5-5.7-20.1-5.7h-28.4v71.9h17.4v-25.4h9.4l12.7,25.4h18.6v-.7l-15.1-29ZM197,336.2c-1.7,1.7-4.2,2.6-7.5,2.6h-11v-19.8h11c3.3,0,5.7.9,7.4,2.6,1.7,1.8,2.5,4.2,2.5,7.3s-.8,5.5-2.5,7.3Z" fill="#2b3a67"/>
    <path d="M277.2,319v-13.4h-49.8v71.9h49.7v-13.3h-32.3v-17.2h27.4v-12.8h-27.4v-15.2h32.4Z" fill="#2b3a67"/>
    <path d="M323.4,305.7h-16.4l-26.5,71.9h18.6l4.2-13.4h23.9l4.2,13.4h18.7l-26.7-71.9ZM307.5,350.7l7.7-24.9,7.8,24.9h-15.5Z" fill="#2b3a67"/>
    <path d="M337.6,305.7v13.4h21.2v58.5h17.4v-58.5h13.4l7.5-13.4h-59.6Z" fill="#2b3a67"/>
    <path d="M455.5,322.2c-2.9-5.2-6.8-9.3-11.9-12.2-5.1-2.9-10.8-4.3-17.2-4.3h-21.7l-7.5,13.4h29.2c5.1,0,9,1.8,11.7,5.3,2.7,3.5,4,8.7,4,15.7v3.1c0,7-1.3,12.2-4,15.8-2.7,3.5-6.5,5.3-11.5,5.3h-6.1v-30.4h-17.4v43.7h23.7c6.2,0,11.9-1.5,17-4.5,5.1-2.9,9-7,11.8-12.2,2.8-5.2,4.2-11.1,4.2-17.7v-3.3c0-6.5-1.5-12.4-4.3-17.6Z" fill="#2b3a67"/>
    <path d="M523.8,321.4c-2.7-5.3-6.4-9.5-11.2-12.4-4.8-2.9-10.2-4.3-16.4-4.3s-11.7,1.5-16.5,4.4c-4.8,2.9-8.6,7.1-11.1,12.5-2.6,5.4-3.9,11.6-3.9,18.6v4.1c.1,6.8,1.5,12.8,4.2,18,2.7,5.2,6.4,9.3,11.1,12.1,4.7,2.8,10.2,4.2,16.3,4.2s11.6-1.5,16.4-4.4c4.8-2.9,8.5-7.1,11.1-12.5,2.6-5.4,3.9-11.6,3.9-18.6v-3.3c0-6.9-1.4-13-4.1-18.4ZM510.2,343.4c0,7-1.3,12.3-3.6,16-2.4,3.7-5.8,5.6-10.2,5.6s-8.1-1.9-10.4-5.7c-2.3-3.8-3.5-9.2-3.5-16.2v-5.3c.6-13,5.2-19.5,13.9-19.5s7.9,1.9,10.3,5.6c2.4,3.7,3.6,9.1,3.6,16.3v3.3Z" fill="#2b3a67"/>
    <path d="M597,305.7l-8.3,45.1-10.1-45.1h-14.8l-9.9,45.1-8.3-45.1h-17.3l15.4,71.9h18l9.5-41,9.7,41h18.1l15.3-71.9h-17.2Z" fill="#2b3a67"/>
    <path d="M663.9,305.7v44.7l-25.6-44.7h-17.4v71.9h17.4v-44.7l25.6,44.7h17.3v-71.9h-17.3,0Z" fill="#2b3a67"/>
    <path d="M690.7,307.2h-3.4v-1.5h8.8v1.5h-3.4v9.7h-1.9v-9.7ZM698,305.7h2.7l3.1,7.9,3.1-7.9h2.7v11.2h-1.9v-8.7l-3.6,8.7h-.7l-3.6-8.7v8.7h-1.8v-11.2Z" fill="#2b3a67"/>
  </g>
  <g>
    <path d="M456.4,61.5l-41.6-41.5-64.1,63.8-64.1-63.8-41.6,41.5,64.1,63.8h-.1c0,.1,41.6,41.6,41.6,41.6h.1c0-.1.1,0,.1,0l41.6-41.5h-.1c0-.1,64.1-63.9,64.1-63.9h0Z" fill="#2b3a67"/>
    <path d="M456.4,164.5l-41.6-41.5-64.1,63.8-64.1-63.8-41.6,41.5,64.1,63.8h-.1c0,.1,41.6,41.6,41.6,41.6h.1c0-.1.1,0,.1,0l41.6-41.5h-.1c0-.1,64.1-63.9,64.1-63.9h0Z" fill="#2b3a67"/>
  </g>
</svg>